<?xml version="1.0" encoding="UTF-8"?>
<svg width="16px" height="16px" viewBox="0 0 16 16" version="1.1" xmlns="http://www.w3.org/2000/svg" xmlns:xlink="http://www.w3.org/1999/xlink">
    <!-- Generator: sketchtool 57.1 (101010) - https://sketch.com -->
    <title>99C6B7C2-5327-497A-8E31-78A7E991EA1B</title>
    <desc>Created with sketchtool.</desc>
    <defs>
        <path d="M15.6232297,11.9601102 C15.873963,12.2108434 16,12.5165503 16,12.8758899 C16,13.2352295 15.873963,13.5409364 15.6232297,13.7916697 L13.7916702,15.6232291 C13.5395961,15.8753032 13.2338892,16.0013402 12.8745496,16.0013402 C12.5165507,16.0013402 12.2108439,15.8753032 11.9601106,15.6232291 L7.99932959,11.6637891 L4.03988938,15.6232291 C3.78915612,15.8753032 3.48344926,16.0013402 3.12410961,16.0013402 C2.76476997,16.0013402 2.46040392,15.8753032 2.20832984,15.6232291 L0.376770301,13.7916697 C0.124696221,13.5409364 0,13.2352295 0,12.8758899 C0,12.5165503 0.124696221,12.2108434 0.376770301,11.9601102 L4.33621051,8.00067012 L0.376770301,4.04123005 C0.124696221,3.78915598 0,3.48478995 0,3.1241095 C0,2.76611068 0.124696221,2.46040383 0.376770301,2.20967058 L2.20832984,0.376770287 C2.46040392,0.126037035 2.76476997,0 3.12410961,0 C3.48344926,0 3.78915612,0.126037035 4.03988938,0.376770287 L7.99932959,4.33621035 L11.9601106,0.376770287 C12.2108439,0.126037035 12.5165507,0 12.8745496,0 C13.2338892,0 13.5395961,0.126037035 13.7916702,0.376770287 L15.6232297,2.20967058 C15.873963,2.46040383 16,2.76611068 16,3.1241095 C16,3.48478995 15.873963,3.78915598 15.6232297,4.04123005 L11.6637895,8.00067012 L15.6232297,11.9601102 Z" id="path-1"></path>
    </defs>
    <g id="UI-Components" stroke="none" stroke-width="1" fill="none" fill-rule="evenodd">
        <g id="Icons" transform="translate(-497.000000, -892.000000)">
            <g id="Icons/close" transform="translate(497.000000, 892.000000)">
                <g transform="translate(0.000000, -0.000000)">
                    <mask id="mask-2" fill="white">
                        <use xlink:href="#path-1"></use>
                    </mask>
                    <g id="shape"></g>
                    <polygon id="fill" fill="#212121" mask="url(#mask-2)" points="0 0 16 0 16 16 0 16"></polygon>
                </g>
            </g>
        </g>
    </g>
</svg>