<?xml version="1.0" encoding="UTF-8"?>
<svg width="24px" height="24px" viewBox="0 0 24 24" version="1.1" xmlns="http://www.w3.org/2000/svg" xmlns:xlink="http://www.w3.org/1999/xlink">
    <!-- Generator: sketchtool 57.1 (101010) - https://sketch.com -->
    <title>21CC88C3-9980-48F3-BE4C-A6952578CC2E</title>
    <desc>Created with sketchtool.</desc>
    <g id="UI-Components" stroke="none" stroke-width="1" fill="none" fill-rule="evenodd">
        <g id="Icons" transform="translate(-738.000000, -1972.000000)" fill="#212121">
            <path d="M761.75376,1991.36032 C760.394304,1994.48992 757.206816,1995.03904 756.165216,1995.03904 C755.85936,1995.03904 751.095936,1995.28096 744.248448,1989.04384 C738.737856,1984.02496 738.064512,1978.62688 738.005856,1977.6016 C737.948736,1976.6032 738.246624,1974.09664 741.836448,1972.2352 C742.281312,1972.0048 743.163168,1971.90208 743.39088,1972.12096 C743.491968,1972.21792 746.505024,1976.97856 746.584224,1977.13696 C746.663424,1977.2944 746.703168,1977.44896 746.703168,1977.6016 C746.703168,1977.81856 746.541792,1978.0912 746.218848,1978.41664 C745.896192,1978.74304 745.545312,1979.04256 745.165824,1979.31424 C744.786336,1979.58592 744.435456,1979.87392 744.112512,1980.17824 C743.789856,1980.48256 743.62848,1980.73312 743.62848,1980.92896 C743.650368,1981.4368 744.083712,1983.25504 747.384768,1986.04096 C750.686304,1988.82688 752.276736,1989.6112 752.429568,1989.66592 C752.582592,1989.71968 752.709792,1989.74656 752.811648,1989.74656 C753.015648,1989.74656 753.276192,1989.592 753.59328,1989.28192 C753.91008,1988.97184 754.975968,1987.56928 755.315616,1987.2592 C755.65536,1986.95008 755.93856,1986.79456 756.165216,1986.79456 C756.323616,1986.79456 756.484992,1986.83296 756.64896,1986.9088 C756.813216,1986.98464 761.77776,1989.7744 761.872704,1989.86752 C762.130272,1990.12096 761.948448,1990.91296 761.75376,1991.36032 Z" id="phone"></path>
        </g>
    </g>
</svg>