<?xml version="1.0" encoding="utf-8"?>
<!-- Generator: Adobe Illustrator 16.0.0, SVG Export Plug-In . SVG Version: 6.00 Build 0)  -->
<!DOCTYPE svg PUBLIC "-//W3C//DTD SVG 1.1//EN" "http://www.w3.org/Graphics/SVG/1.1/DTD/svg11.dtd">
<svg version="1.1" id="Layer_1" xmlns="http://www.w3.org/2000/svg" xmlns:xlink="http://www.w3.org/1999/xlink" x="0px" y="0px"
	 width="22px" height="20px" viewBox="0 0 22 20" enable-background="new 0 0 22 20" xml:space="preserve">
<title>blog-comment-icon</title>
<desc>Created with Sketch.</desc>
<g id="_x2D_">
	<g id="page-blog-topic" transform="translate(-687.000000, -1177.000000)">
		<g enable-background="new    ">
			<path fill="#5B616A" d="M698.006,1193c-0.602,0-1.204-0.037-1.781-0.099c-1.609,1.425-3.525,2.433-5.65,2.973
				c-0.442,0.123-0.921,0.209-1.4,0.271c-0.025,0-0.049,0-0.062,0c-0.246,0-0.467-0.196-0.528-0.467c0-0.013,0-0.013,0-0.013
				c-0.062-0.307,0.147-0.491,0.332-0.712c0.774-0.872,1.658-1.609,2.236-3.66c-2.53-1.438-4.152-3.661-4.152-6.154
				c0-4.349,4.926-7.861,11.006-7.861s11.006,3.513,11.006,7.861S704.086,1193,698.006,1193z M688.572,1185.139
				c0,1.83,1.229,3.574,3.354,4.778l1.068,0.614l-0.332,1.179c-0.233,0.872-0.541,1.548-0.86,2.113
				c1.241-0.517,2.371-1.216,3.378-2.101l0.528-0.467l0.7,0.073c0.528,0.062,1.068,0.099,1.597,0.099
				c5.109,0,9.434-2.874,9.434-6.289s-4.324-6.289-9.434-6.289C692.896,1178.85,688.572,1181.724,688.572,1185.139z"/>
		</g>
	</g>
</g>
</svg>
