<?xml version="1.0" encoding="UTF-8"?>
<svg width="44px" height="44px" viewBox="0 0 44 44" version="1.1" xmlns="http://www.w3.org/2000/svg" xmlns:xlink="http://www.w3.org/1999/xlink">
    <!-- Generator: Sketch 51.3 (57544) - http://www.bohemiancoding.com/sketch -->
    <title>Twitter Logo</title>
    <desc>Created with Sketch.</desc>
    <defs></defs>
    <g id="Page-1" stroke="none" stroke-width="1" fill="none" fill-rule="evenodd">
        <g id="Social-Media-Button" transform="translate(-400.000000, -268.000000)">
            <g id="Twitter-Logo" transform="translate(400.000000, 268.000000)">
                <rect id="Rectangle-2-Copy" stroke="#1DA1F2" x="0.5" y="0.5" width="43" height="43" rx="2"></rect>
                <g id="Twitter_Logo_Blue" transform="translate(8.000000, 8.000000)">
                    <rect id="Rectangle-path" x="0" y="0" width="28" height="28"></rect>
                    <path d="M10.7534,21.1113 C17.3572,21.1113 20.9692,15.6401 20.9692,10.8955 C20.9692,10.7401 20.9692,10.5854 20.9587,10.4314 C21.661382,9.9231376 22.2679488,9.29381558 22.75,8.5729 C22.0947153,8.86326124 21.3995805,9.05368005 20.6878,9.1378 C21.4373208,8.68908744 21.9982865,7.98334039 22.2663,7.1519 C21.5615102,7.57011872 20.7904523,7.86485841 19.9864,8.0234 C18.8734579,6.839976 17.1050035,6.55032881 15.6726845,7.31687595 C14.2403654,8.08342309 13.5003925,9.71552801 13.8677,11.298 C10.980827,11.1532747 8.29113305,9.78972629 6.468,7.5467 C5.51503593,9.18725131 6.00179152,11.2860016 7.5796,12.3396 C7.00821884,12.3226653 6.44929556,12.1685292 5.95,11.8902 C5.95,11.9049 5.95,11.9203 5.95,11.9357 C5.95046769,13.6448151 7.15522604,15.1168746 8.8305,15.4553 C8.30190872,15.599458 7.74730641,15.620531 7.2093,15.5169 C7.67966355,16.979496 9.02760219,17.9814487 10.5637,18.0103 C9.29231453,19.0095024 7.72174166,19.5519294 6.1047,19.5503 C5.8190325,19.5497516 5.53364285,19.5324552 5.25,19.4985 C6.89194516,20.5521936 8.80243938,21.1111018 10.7534,21.1085" id="Shape" fill="#1DA1F2" fill-rule="nonzero"></path>
                </g>
            </g>
        </g>
    </g>
</svg>