<?xml version="1.0" encoding="UTF-8"?>
<svg width="44px" height="44px" viewBox="0 0 44 44" version="1.1" xmlns="http://www.w3.org/2000/svg" xmlns:xlink="http://www.w3.org/1999/xlink">
    <!-- Generator: Sketch 51.3 (57544) - http://www.bohemiancoding.com/sketch -->
    <title>YouTube logo</title>
    <desc>Created with Sketch.</desc>
    <defs></defs>
    <g id="Page-1" stroke="none" stroke-width="1" fill="none" fill-rule="evenodd">
        <g id="Social-Media-Button" transform="translate(-460.000000, -268.000000)">
            <g id="YouTube-logo" transform="translate(460.000000, 268.000000)">
                <rect id="Rectangle-2-Copy-2" stroke="#FF0000" x="0.5" y="0.5" width="43" height="43" rx="2"></rect>
                <g id="youtube" transform="translate(12.000000, 15.000000)" fill="#FF0000" fill-rule="nonzero">
                    <path d="M19.5791667,2.67083333 C19.3434925,1.82638064 18.6836194,1.16650752 17.8391667,0.930833333 C16.2808333,0.513333333 10.0091667,0.513333333 10.0091667,0.513333333 C10.0091667,0.513333333 3.75333333,0.505 2.17916667,0.930833333 C1.33471397,1.16650752 0.674840852,1.82638064 0.439166667,2.67083333 C0.143767162,4.2662588 -0.00186620974,5.88580232 0.00416666667,7.50833333 C-0.000725724028,9.12474185 0.144902873,10.7380947 0.439166667,12.3275 C0.674840852,13.1719527 1.33471397,13.8318258 2.17916667,14.0675 C3.73583333,14.4858333 10.0091667,14.4858333 10.0091667,14.4858333 C10.0091667,14.4858333 16.2641667,14.4858333 17.8391667,14.0675 C18.6836194,13.8318258 19.3434925,13.1719527 19.5791667,12.3275 C19.8672827,10.737519 20.0067733,9.12417082 19.9958333,7.50833333 C20.0079137,5.88637549 19.8684185,4.26683664 19.5791667,2.67083333 Z M8.0075,10.5008333 L8.0075,4.50666667 L13.2275,7.50833333 L8.0075,10.5008333 Z" id="Shape"></path>
                </g>
            </g>
        </g>
    </g>
</svg>