<?xml version="1.0" encoding="UTF-8"?>
<svg width="20px" height="20px" viewBox="0 0 20 20" version="1.1" xmlns="http://www.w3.org/2000/svg" xmlns:xlink="http://www.w3.org/1999/xlink">
    <!-- Generator: Sketch 54.1 (76490) - https://sketchapp.com -->
    <title>UI Component/Icons/Tooltip</title>
    <desc>Created with Sketch.</desc>
    <g id="Tool" stroke="none" stroke-width="1" fill="none" fill-rule="evenodd">
        <g id="Farm-Ownership-Microloan-Output" transform="translate(-588.000000, -4091.000000)">
            <g id="Do-you-require-collateral" transform="translate(180.000000, 3922.000000)">
                <g id="UI-Component/Icons/Tooltip" transform="translate(410.000000, 171.000000)">
                    <g id="Shape">
                        <path d="M8,-1 C12.9635634,-1 17,3.03643656 17,8 C17,12.9635634 12.9635634,17 8,17 C3.03643656,17 -1,12.9635634 -1,8 C-1,3.03643656 3.03643656,-1 8,-1 Z" stroke="#212121" stroke-width="2" fill-rule="nonzero"></path>
                        <path d="M7.99265574,12.6046776 C7.48153005,12.6046776 7.06727869,12.1904262 7.06727869,11.6793005 C7.06727869,11.1681749 7.48153005,10.7539235 7.99265574,10.7539235 C8.50378142,10.7539235 8.91803279,11.1681749 8.91803279,11.6793005 C8.91803279,12.1904262 8.50378142,12.6046776 7.99265574,12.6046776 Z M9.98050273,7.95698361 C9.45451366,8.34850273 8.89232787,8.66657923 8.7823388,9.38754098 L8.7823388,9.8526776 L7.13180328,9.8526776 L7.13180328,9.30255738 C7.20489617,8.2383388 7.70622951,7.76183607 8.1953224,7.38273224 C8.67217486,7.00397814 9.08782514,6.72297268 9.08782514,6.0623388 C9.08782514,5.31637158 8.6968306,4.9619235 8.04896175,4.9619235 C7.16887432,4.9619235 6.80201093,5.68323497 6.78942077,6.55143169 L4.99217486,6.55143169 C5.02907104,4.80314754 6.17827322,3.53154098 7.96310383,3.53154098 C10.2739235,3.53154098 11.0078251,4.94985792 11.0078251,5.89079781 C11.0078251,7.07707104 10.5064918,7.5539235 9.98050273,7.95698361 Z" fill="#212121" fill-rule="nonzero"></path>
                    </g>
                </g>
            </g>
        </g>
    </g>
</svg>