<svg id="Layer_1" data-name="Layer 1" xmlns="http://www.w3.org/2000/svg" xmlns:xlink="http://www.w3.org/1999/xlink" viewBox="0 0 161.05 92.11"><defs><style>.cls-1{fill:none;}.cls-2{clip-path:url(#clip-path);}.cls-3{fill:#fff;}.cls-4{fill:#8cc63f;}.cls-5{fill:#f7be00;}.cls-6{fill:#006546;}</style><clipPath id="clip-path" transform="translate(-10.83 -43.72)"><rect class="cls-1" width="180" height="180"/></clipPath></defs><title>Farmers-logo</title><g class="cls-2"><rect class="cls-3" y="29.82" width="161.05" height="32.48"/></g><path class="cls-4" d="M129.1,107.51a.87.87,0,0,0-.55-.4,44,44,0,0,0-10-1.15,43,43,0,0,0-16.26,3.15,41.17,41.17,0,0,0-12.61,8,41,41,0,0,0-4.08-3.32A42,42,0,0,0,74.1,108,43.5,43.5,0,0,0,60.8,106a44,44,0,0,0-10,1.15.9.9,0,0,0-.55.4.79.79,0,0,0-.07.64,37.79,37.79,0,0,0,5.72,11.08,40.37,40.37,0,0,0,9,8.77,42,42,0,0,0,11.5,5.76c1.17.38,2.36.7,3.56,1l.38.08.41.09.3.06.43.09.25,0,1,.17.09,0,.49.07.23,0,.47.07.22,0,.88.1.23,0,.43,0,.33,0,.39,0,.45,0,.4,0,.59,0h.28l.52,0h2l.53,0h.27l.6,0,.39,0,.45,0,.39,0,.33,0,.43,0,.23,0,.88-.1.22,0,.47-.07.24,0,.48-.07.09,0,1-.17.25,0,.43-.09.3-.06.41-.09.38-.08c1.2-.28,2.39-.6,3.56-1a42,42,0,0,0,11.5-5.76,40.37,40.37,0,0,0,9-8.77,38.06,38.06,0,0,0,5.73-11.08.79.79,0,0,0-.08-.64M98,133.36l-.53.1-.28.06-.4.07-.25,0-.69.11-.25,0-.42.06-.26,0-.66.08-.3,0-.37,0-.42,0-.44,0-.44,0-.29,0-.62,0h-.15l-.62,0H88.71l-.5,0H88l-.57,0-.39,0-.42,0-.38,0-.31,0-.41,0-.23,0-.84-.1-.21,0-.45-.06-.22,0-.47-.07-.09,0-.92-.16-.24,0-.42-.09-.28-.05-.4-.09-.34-.08-.26-.06h0c-1.06-.25-2.12-.54-3.16-.88a40.3,40.3,0,0,1-11-5.51,38.75,38.75,0,0,1-8.6-8.4,36.4,36.4,0,0,1-5.2-9.78,41.93,41.93,0,0,1,8.68-.91,41.43,41.43,0,0,1,12.74,2,40.22,40.22,0,0,1,11,5.51,38.7,38.7,0,0,1,8.59,8.4,36,36,0,0,1,4,6.8s0,.09,0,.13a.87.87,0,0,0,.2.35c.36.83.68,1.66,1,2.5l-.37.08m24-15.07a38.92,38.92,0,0,1-8.59,8.4,40.36,40.36,0,0,1-11,5.51q-1.17.39-2.37.69c-.25-.71-.51-1.4-.8-2.09a38.12,38.12,0,0,0,14.17-6.93,35.68,35.68,0,0,0,10.19-12.66.78.78,0,0,0,0-.74.87.87,0,0,0-.66-.41,39.72,39.72,0,0,0-4.37-.24,38.79,38.79,0,0,0-14.8,2.89,37.37,37.37,0,0,0-11.3,7.23c-.51-.57-1-1.12-1.56-1.66A39.45,39.45,0,0,1,103,110.62a41.24,41.24,0,0,1,15.58-3,41.93,41.93,0,0,1,8.68.91,36.4,36.4,0,0,1-5.2,9.78" transform="translate(-10.83 -43.72)"/><path class="cls-4" d="M81.25,115.61a38.54,38.54,0,0,0-20.45-5.79,39.72,39.72,0,0,0-4.37.24.85.85,0,0,0-.65.41.78.78,0,0,0,0,.74,35.79,35.79,0,0,0,13.48,15,38.41,38.41,0,0,0,16.06,5.55h0l.17,0,.22,0,.41,0,.23,0,.49,0,.29,0,.42,0h2.14a40,40,0,0,0,4.37-.24.87.87,0,0,0,.65-.41.78.78,0,0,0,0-.74,35.82,35.82,0,0,0-13.49-15" transform="translate(-10.83 -43.72)"/><path class="cls-5" d="M89.8,56.53h0a.92.92,0,0,1-1-.88L89,44.58a.91.91,0,0,1,1-.86h0a.92.92,0,0,1,1,.88l-.14,11.07a.91.91,0,0,1-1,.86" transform="translate(-10.83 -43.72)"/><path class="cls-5" d="M78.19,58.29a1,1,0,0,1-.9-.59l-4-10.44a.85.85,0,0,1,.58-1.11,1,1,0,0,1,1.22.53l4,10.44a.87.87,0,0,1-.59,1.12,1.12,1.12,0,0,1-.31,0" transform="translate(-10.83 -43.72)"/><path class="cls-5" d="M67.93,63.58a1,1,0,0,1-.74-.32L59.54,54.7a.83.83,0,0,1,.13-1.23,1,1,0,0,1,1.34.12l7.66,8.56a.83.83,0,0,1-.14,1.23,1,1,0,0,1-.6.2" transform="translate(-10.83 -43.72)"/><path class="cls-5" d="M60.26,71.77a1,1,0,0,1-.48-.12L49.4,66a.84.84,0,0,1-.34-1.2,1,1,0,0,1,1.31-.31l10.38,5.64a.84.84,0,0,1,.33,1.2,1,1,0,0,1-.82.43" transform="translate(-10.83 -43.72)"/><path class="cls-5" d="M119,72.37a1,1,0,0,1-.83-.45.84.84,0,0,1,.37-1.19L129,65.31a1,1,0,0,1,1.3.33.83.83,0,0,1-.36,1.19l-10.52,5.43a1.12,1.12,0,0,1-.47.11" transform="translate(-10.83 -43.72)"/><path class="cls-5" d="M111.49,64a1,1,0,0,1-.62-.21.82.82,0,0,1-.1-1.23l7.85-8.4a1,1,0,0,1,1.35-.09.82.82,0,0,1,.1,1.23l-7.86,8.4a1,1,0,0,1-.72.3" transform="translate(-10.83 -43.72)"/><path class="cls-5" d="M101.36,58.52a1,1,0,0,1-.33-.05.87.87,0,0,1-.56-1.13L104.72,47a1,1,0,0,1,1.23-.51.84.84,0,0,1,.56,1.12L102.26,58a1,1,0,0,1-.9.56" transform="translate(-10.83 -43.72)"/><path class="cls-5" d="M95.24,57h-.17a.88.88,0,0,1-.77-1l2.07-10.91a1,1,0,0,1,1.1-.71.89.89,0,0,1,.78,1L96.17,56.27a.93.93,0,0,1-.93.72" transform="translate(-10.83 -43.72)"/><path class="cls-5" d="M83.47,57a.92.92,0,0,1-.94-.72L80.41,45.4a.89.89,0,0,1,.77-1,1,1,0,0,1,1.11.71L84.41,56a.9.9,0,0,1-.78,1h-.16" transform="translate(-10.83 -43.72)"/><path class="cls-5" d="M72.42,60.73a1,1,0,0,1-.83-.44l-6-9.57a.84.84,0,0,1,.34-1.2,1,1,0,0,1,1.31.32l6,9.57a.84.84,0,0,1-.34,1.2,1.07,1.07,0,0,1-.48.12" transform="translate(-10.83 -43.72)"/><path class="cls-5" d="M63.42,67.68a1,1,0,0,1-.61-.2l-9.26-7.1a.82.82,0,0,1-.12-1.23A1,1,0,0,1,54.77,59L64,66.13a.84.84,0,0,1,.12,1.24,1,1,0,0,1-.73.31" transform="translate(-10.83 -43.72)"/><path class="cls-5" d="M115.33,67.58a.94.94,0,0,1-.72-.31.82.82,0,0,1,.11-1.23L124,58.91a1,1,0,0,1,1.34.11.82.82,0,0,1-.11,1.23L116,67.38a1,1,0,0,1-.62.2" transform="translate(-10.83 -43.72)"/><path class="cls-5" d="M106.3,60.66a1.12,1.12,0,0,1-.47-.11.84.84,0,0,1-.35-1.2l6-9.59a1,1,0,0,1,1.3-.33.84.84,0,0,1,.35,1.2l-6,9.59a1,1,0,0,1-.83.44" transform="translate(-10.83 -43.72)"/><path class="cls-5" d="M80.72,74.8a1,1,0,0,1-.78-.37.83.83,0,0,1,.23-1.22,17,17,0,0,1,9.25-2.73.88.88,0,1,1,0,1.75,14.92,14.92,0,0,0-8.15,2.41,1,1,0,0,1-.55.16" transform="translate(-10.83 -43.72)"/><path class="cls-5" d="M72.14,74.06a1,1,0,0,1-.62-.21.82.82,0,0,1-.1-1.23,24.58,24.58,0,0,1,18-7.61.88.88,0,1,1,0,1.75,22.6,22.6,0,0,0-16.55,7,1,1,0,0,1-.73.3" transform="translate(-10.83 -43.72)"/><path class="cls-5" d="M64.88,73.52a1,1,0,0,1-.51-.13.84.84,0,0,1-.3-1.21,29.17,29.17,0,0,1,10.65-9.33,32,32,0,0,1,14.7-3.54.88.88,0,1,1,0,1.75,30,30,0,0,0-13.76,3.31,27.23,27.23,0,0,0-10,8.74,1,1,0,0,1-.81.41" transform="translate(-10.83 -43.72)"/><path class="cls-5" d="M98.12,74.8a1,1,0,0,1-.55-.16,14.92,14.92,0,0,0-8.15-2.41.88.88,0,1,1,0-1.75,17,17,0,0,1,9.25,2.73.83.83,0,0,1,.23,1.22,1,1,0,0,1-.78.37" transform="translate(-10.83 -43.72)"/><path class="cls-5" d="M106.7,74.06a1,1,0,0,1-.73-.3,22.6,22.6,0,0,0-16.55-7,.88.88,0,1,1,0-1.75,24.58,24.58,0,0,1,18,7.61.82.82,0,0,1-.1,1.23,1,1,0,0,1-.62.21" transform="translate(-10.83 -43.72)"/><path class="cls-5" d="M114,73.52a1,1,0,0,1-.81-.41,27.23,27.23,0,0,0-10-8.74,30,30,0,0,0-13.76-3.31.88.88,0,1,1,0-1.75,32,32,0,0,1,14.7,3.54,29.17,29.17,0,0,1,10.65,9.33.84.84,0,0,1-.3,1.21,1,1,0,0,1-.51.13" transform="translate(-10.83 -43.72)"/><polygon class="cls-6" points="10.52 44.82 4.86 44.82 4.86 42.17 11.48 42.17 11.48 37.92 0.04 37.92 0.04 55.4 4.86 55.4 4.86 49.06 10.52 49.06 10.52 44.82"/><path class="cls-6" d="M26.23,81.64,20.76,99.12h5l1-3.88h4.1l1,3.88H37L31.5,81.64Zm2.57,5.62c0,.18.08.36.13.54.21.92.44,1.81.68,2.63l.19.79h-2l.21-.79c.23-.82.46-1.7.67-2.62,0-.18.08-.37.13-.55" transform="translate(-10.83 -43.72)"/><path class="cls-6" d="M49.84,90.59a6.57,6.57,0,0,0,.32-6,4.74,4.74,0,0,0-1.53-1.78,6.41,6.41,0,0,0-2.2-.93,12.34,12.34,0,0,0-2.56-.26H37.41V99.12h4.82V93.23h1.12l3.13,5.89h5.46L48,92.25a5.3,5.3,0,0,0,1.8-1.66M46,87.3a1.65,1.65,0,0,1-.55,1.37,2.93,2.93,0,0,1-1.86.49H42.23V85.71h1.34a3.68,3.68,0,0,1,1.91.39c.13.08.5.31.5,1.2" transform="translate(-10.83 -43.72)"/><path class="cls-6" d="M61.58,89.36l-.49,1.44-.49-1.43-2.88-7.73H52.85V99.12h4.52V92.56c0-.4,0-.84,0-1.33l2.55,6.46h2.26l2.58-6.53v0c0,.5,0,1,0,1.37v6.56h4.57V81.64H64.37Z" transform="translate(-10.83 -43.72)"/><polygon class="cls-6" points="65.94 48.54 71.51 48.54 71.51 44.31 65.94 44.31 65.94 42.17 72.49 42.17 72.49 37.92 61.12 37.92 61.12 55.4 72.74 55.4 72.74 51.16 65.94 51.16 65.94 48.54"/><path class="cls-6" d="M98.12,90.59a6.57,6.57,0,0,0,.32-6,4.74,4.74,0,0,0-1.53-1.78,6.41,6.41,0,0,0-2.2-.93,12.34,12.34,0,0,0-2.56-.26H85.69V99.12h4.82V93.23h1.12l3.13,5.89h5.46l-3.9-6.87a5.3,5.3,0,0,0,1.8-1.66M94.26,87.3a1.65,1.65,0,0,1-.55,1.37,2.94,2.94,0,0,1-1.87.49H90.51V85.71h1.33a3.7,3.7,0,0,1,1.92.39c.13.08.5.31.5,1.2" transform="translate(-10.83 -43.72)"/><path class="cls-6" d="M109.5,88.83,107.4,88l-1-.42a5.22,5.22,0,0,1-.71-.35,1.47,1.47,0,0,1-.36-.33.5.5,0,0,1-.09-.31.68.68,0,0,1,.32-.62,2.11,2.11,0,0,1,1.19-.29,4.05,4.05,0,0,1,1.56.29,6.84,6.84,0,0,1,1.48.89l.44.35L112.81,84l-.36-.36a7.81,7.81,0,0,0-2.64-1.73,8.25,8.25,0,0,0-3-.59,7.63,7.63,0,0,0-2.53.41,6.43,6.43,0,0,0-2,1.14,5.38,5.38,0,0,0-1.35,1.74,4.92,4.92,0,0,0-.48,2.14,5.22,5.22,0,0,0,.31,1.82,4.76,4.76,0,0,0,.84,1.42,5.52,5.52,0,0,0,1.17,1,6.49,6.49,0,0,0,1.32.71l2.12.9,1,.41a4,4,0,0,1,.66.35,1,1,0,0,1,.31.31.74.74,0,0,1,.08.36.79.79,0,0,1-.34.7,2.39,2.39,0,0,1-1.37.31,4.59,4.59,0,0,1-1.86-.42,7.41,7.41,0,0,1-1.81-1.15l-.43-.37-2.82,3.39.39.36a8.93,8.93,0,0,0,3,1.89,9.85,9.85,0,0,0,3.39.62,8.48,8.48,0,0,0,2.8-.44,6.72,6.72,0,0,0,2.12-1.21,5.33,5.33,0,0,0,1.35-1.8,5.23,5.23,0,0,0,.46-2.18,4.8,4.8,0,0,0-1-3.14,6.26,6.26,0,0,0-2.6-1.82" transform="translate(-10.83 -43.72)"/><path class="cls-6" d="M117.14,93.65a2.64,2.64,0,0,0-2,.84,2.86,2.86,0,0,0-.8,2.06,2.82,2.82,0,0,0,.8,2,2.64,2.64,0,0,0,2,.84,2.67,2.67,0,0,0,2-.84,2.82,2.82,0,0,0,.8-2,2.86,2.86,0,0,0-.8-2.06,2.67,2.67,0,0,0-2-.84" transform="translate(-10.83 -43.72)"/><path class="cls-6" d="M128.9,92.93h2.71v1.93a1.17,1.17,0,0,1-.36.13,2.82,2.82,0,0,1-.83.11,3.63,3.63,0,0,1-3-1.18,5.47,5.47,0,0,1-1-3.56,6.74,6.74,0,0,1,.29-2,4.33,4.33,0,0,1,.78-1.46,3.5,3.5,0,0,1,1.17-.89,3.55,3.55,0,0,1,1.51-.31,3.31,3.31,0,0,1,1.46.27,4.59,4.59,0,0,1,1.13.8l.42.41L135.94,84l-.37-.38a8.78,8.78,0,0,0-2.22-1.59,7.11,7.11,0,0,0-3.25-.71,9,9,0,0,0-3.33.62,8,8,0,0,0-2.76,1.8,8.75,8.75,0,0,0-1.85,2.89,10.25,10.25,0,0,0-.68,3.83,10.56,10.56,0,0,0,.65,3.83,7.69,7.69,0,0,0,4.55,4.54,9.36,9.36,0,0,0,3.29.57,9,9,0,0,0,3.37-.62,7.9,7.9,0,0,0,2.49-1.51l.17-.17V88.78h-7.1Z" transform="translate(-10.83 -43.72)"/><path class="cls-6" d="M151.25,83.73A7,7,0,0,0,148.7,82a8.91,8.91,0,0,0-6.48,0,7,7,0,0,0-2.54,1.77A8,8,0,0,0,138,86.55a12.69,12.69,0,0,0,0,7.52A8.35,8.35,0,0,0,139.67,97a7.32,7.32,0,0,0,2.55,1.84,8.67,8.67,0,0,0,6.49,0A7.28,7.28,0,0,0,151.25,97a8.35,8.35,0,0,0,1.63-2.88,12.62,12.62,0,0,0,0-7.5,8.08,8.08,0,0,0-1.63-2.84m-2.72,6.58a6.41,6.41,0,0,1-.88,3.6,2.51,2.51,0,0,1-2.19,1.19,2.48,2.48,0,0,1-2.18-1.19,6.33,6.33,0,0,1-.88-3.6,6,6,0,0,1,.87-3.51,2.67,2.67,0,0,1,4.38,0,6,6,0,0,1,.88,3.51" transform="translate(-10.83 -43.72)"/><path class="cls-6" d="M163.72,81.64l-2,8c-.23.88-.45,1.77-.65,2.63-.05.21-.11.43-.16.65l-.15-.65c-.2-.85-.42-1.74-.67-2.64l-2.06-8h-5.12l5.28,17.48h5.28l5.26-17.48Z" transform="translate(-10.83 -43.72)"/></svg>