<?xml version="1.0" encoding="UTF-8"?>
<svg width="60px" height="59px" viewBox="0 0 60 59" version="1.1" xmlns="http://www.w3.org/2000/svg" xmlns:xlink="http://www.w3.org/1999/xlink">
    <!-- Generator: sketchtool 57.1 (101010) - https://sketch.com -->
    <title>910B383B-C3D2-4A79-BC0E-5CFF68ACA017</title>
    <desc>Created with sketchtool.</desc>
    <g id="UI-Components" stroke="none" stroke-width="1" fill="none" fill-rule="evenodd">
        <g id="Checkboxes" transform="translate(-553.000000, -1872.000000)" fill="#212121" fill-rule="nonzero">
            <g id="orchards-nursery-28" transform="translate(553.000000, 1872.000000)">
                <path d="M58.2612245,33.0612245 L56.644898,33.0612245 C56.4794639,30.1581024 54.8200933,27.5485336 52.2612245,26.1673469 C53.4771986,24.5186479 53.9234371,22.4257895 53.4857143,20.4244898 C53.4291838,20.1709346 53.2429546,19.9660824 52.9959184,19.8857143 C51.2261585,19.372248 49.3203508,19.6585666 47.7795918,20.6693878 C46.2266754,19.7914928 44.4073953,19.5085904 42.6612245,19.8734694 C42.4076693,19.9299999 42.2028171,20.1162291 42.122449,20.3632653 C41.4674018,22.5217013 42.0346271,24.8656076 43.6040816,26.4857143 L43.6040816,26.4857143 C42.1823476,27.4020444 41.0688695,28.7245662 40.4081633,30.2816327 C39.6715348,28.5515389 38.3788123,27.1166169 36.7346939,26.2040816 C37.950668,24.5553826 38.3969065,22.4625242 37.9591837,20.4612245 C37.9026532,20.2076693 37.7164239,20.0028171 37.4693878,19.922449 C35.6996279,19.4089827 33.7938202,19.6953013 32.2530612,20.7061224 C30.7001448,19.8282275 28.8808646,19.5453251 27.1346939,19.9102041 C26.8811387,19.9667346 26.6762865,20.1529638 26.5959184,20.4 C25.9408712,22.558436 26.5080965,24.9023423 28.077551,26.522449 L28.077551,26.522449 C25.8322014,27.9661627 24.4123453,30.3963012 24.2571429,33.0612245 L22.5918367,33.0612245 L22.5918367,16.9102041 L33.7591837,16.9102041 C34.1649439,16.9102041 34.4938776,16.5812704 34.4938776,16.1755102 L34.4938776,0.746938776 C34.4938776,0.341178551 34.1649439,0.012244898 33.7591837,0.012244898 L9.95510204,0.012244898 C9.54934182,0.012244898 9.22040816,0.341178551 9.22040816,0.746938776 L9.22040816,16.1755102 C9.22040816,16.5812704 9.54934182,16.9102041 9.95510204,16.9102041 L21.1346939,16.9102041 L21.1346939,33.0612245 L19.4571429,33.0612245 C19.2917088,30.1581024 17.6323382,27.5485336 15.0734694,26.1673469 C16.2894435,24.5186479 16.735682,22.4257895 16.2979592,20.4244898 C16.2414287,20.1709346 16.0551994,19.9660824 15.8081633,19.8857143 C14.0384034,19.372248 12.1325957,19.6585666 10.5918367,20.6693878 C9.03892028,19.7914928 7.21964015,19.5085904 5.47346939,19.8734694 C5.21991422,19.9299999 5.01506203,20.1162291 4.93469388,20.3632653 C4.27964671,22.5217013 4.84687204,24.8656076 6.41632653,26.4857143 L6.41632653,26.4857143 C4.16551965,27.9396588 2.7491048,30.3853654 2.60816327,33.0612245 L0.955102041,33.0612245 C0.549341816,33.0612245 0.220408163,33.3901581 0.220408163,33.7959184 L0.220408163,43.0163265 C0.220408163,43.4220868 0.549341816,43.7510204 0.955102041,43.7510204 L2.58367347,43.7510204 L2.58367347,48.0979592 L0.955102041,48.0979592 C0.549341816,48.0979592 0.220408163,48.4268928 0.220408163,48.8326531 L0.220408163,58.0530612 C0.220408163,58.4588214 0.549341816,58.7877551 0.955102041,58.7877551 L58.2612245,58.7877551 C58.6669847,58.7877551 58.9959184,58.4588214 58.9959184,58.0530612 L58.9959184,48.8816327 C58.9959184,48.4758724 58.6669847,48.1469388 58.2612245,48.1469388 L56.6693878,48.1469388 L56.6693878,43.7877551 L58.2734694,43.7877551 C58.6792296,43.7877551 59.0081633,43.4588214 59.0081633,43.0530612 L59.0081633,33.8326531 C59.0183728,33.6293717 58.9437948,33.430964 58.8022118,33.2847389 C58.6606287,33.1385138 58.4647294,33.057576 58.2612245,33.0612245 Z M10.6897959,1.48163265 L33.0612245,1.48163265 L33.0612245,15.4408163 L10.6897959,15.4408163 L10.6897959,1.48163265 Z M52.1510204,21.2204082 C52.3783692,22.7359879 51.9309405,24.2751427 50.9265306,25.4326531 L50.7428571,25.5918367 C49.2447019,25.1075015 47.6401448,25.0565632 46.1142857,25.444898 C46.4837688,24.1964668 47.2016406,23.0793053 48.1836735,22.2244898 L48.1836735,22.2244898 L48.1836735,22.2244898 C49.2809215,21.296674 50.7445098,20.9262596 52.1510204,21.2204082 L52.1510204,21.2204082 Z M43.444898,21.2204082 C44.5247182,21.0806203 45.62217,21.2416364 46.6163265,21.6857143 C45.6861331,22.7446606 45.0079341,24.0005847 44.6326531,25.3591837 C43.6038778,24.265443 43.1661362,22.742467 43.4571429,21.2693878 L43.444898,21.2204082 Z M48.2081633,26.6081633 C51.8662558,26.5921828 54.9114901,29.4126371 55.1755102,33.0612245 L41.2653061,33.0612245 C41.5533459,29.4367235 44.5844979,26.6457156 48.2204082,26.6571429 L48.2081633,26.6081633 Z M36.6122449,21.2204082 C36.8395937,22.7359879 36.392165,24.2751427 35.3877551,25.4326531 L35.2040816,25.5918367 C33.7174224,25.1138659 32.1264214,25.0629539 30.6122449,25.444898 C30.9792162,24.1953181 31.6975113,23.0774979 32.6816327,22.2244898 L32.6816327,22.2244898 L32.6816327,22.2244898 C33.7692796,21.3061884 35.2174292,20.9362561 36.6122449,21.2204082 Z M27.9061224,21.2204082 C28.9859426,21.0806203 30.0833945,21.2416364 31.077551,21.6857143 C30.1477078,22.7449043 29.4695544,24.0007439 29.0938776,25.3591837 C28.0651023,24.265443 27.6273607,22.742467 27.9183673,21.2693878 L27.9061224,21.2204082 Z M32.6693878,26.6081633 C36.3274803,26.5921828 39.3727146,29.4126371 39.6367347,33.0612245 L25.7142857,33.0612245 C26.0026742,29.4320089 29.0410208,26.6392932 32.6816327,26.6571429 L32.6693878,26.6081633 Z M14.9755102,21.2204082 C15.202859,22.7359879 14.7554303,24.2751427 13.7510204,25.4326531 L13.5673469,25.5918367 C12.0693072,25.1068376 10.4645614,25.0558932 8.93877551,25.444898 C9.30913496,24.1938648 10.031784,23.0758842 11.0204082,22.2244898 L11.0204082,22.2244898 L11.0204082,22.2244898 C12.1147443,21.3004094 13.5729091,20.9302252 14.9755102,21.2204082 Z M6.26938776,21.2204082 C7.34920795,21.0806203 8.44665983,21.2416364 9.44081633,21.6857143 C8.51097314,22.7449043 7.83281975,24.0007439 7.45714286,25.3591837 C6.42397399,24.2677344 5.98158922,22.7444713 6.26938776,21.2693878 L6.26938776,21.2204082 Z M11.0204082,26.6571429 C14.6610201,26.6392932 17.6993666,29.4320089 17.9877551,33.0612245 L4.07755102,33.0612245 C4.36523145,29.441428 7.38920153,26.6521222 11.0204082,26.6571429 Z M57.5510204,57.3673469 L1.68979592,57.3673469 L1.68979592,49.6163265 L57.5510204,49.6163265 L57.5510204,57.3673469 Z M55.2122449,48.1469388 L4.05306122,48.1469388 L4.05306122,43.7877551 L55.2,43.7877551 L55.2,48.1346939 L55.2122449,48.1469388 Z M57.5510204,42.3183673 L1.68979592,42.3183673 L1.68979592,34.5673469 L57.5510204,34.5673469 L57.5510204,42.3183673 L57.5510204,42.3183673 Z" id="Shape"></path>
            </g>
        </g>
    </g>
</svg>