<?xml version="1.0" encoding="utf-8"?>
<!-- Generator: Adobe Illustrator 16.0.0, SVG Export Plug-In . SVG Version: 6.00 Build 0)  -->
<!DOCTYPE svg PUBLIC "-//W3C//DTD SVG 1.1//EN" "http://www.w3.org/Graphics/SVG/1.1/DTD/svg11.dtd">
<svg version="1.1" id="Layer_1" xmlns="http://www.w3.org/2000/svg" xmlns:xlink="http://www.w3.org/1999/xlink" x="0px" y="0px"
	 width="512px" height="512px" viewBox="0 0 512 512" enable-background="new 0 0 512 512" xml:space="preserve">
<path fill="#0071BC" d="M373.224,256.002l126.708-126.708c8.05-8.042,12.066-17.81,12.066-29.306c0-11.494-4.03-21.26-12.066-29.306
	L441.32,12.067C433.274,4.021,423.508,0,412.021,0c-11.5,0-21.265,4.023-29.313,12.066L256.002,138.771L129.292,12.067
	C121.255,4.023,111.487,0,99.989,0C88.501,0,78.73,4.023,70.683,12.066L12.067,70.681C4.027,78.722,0,88.495,0,99.992
	c0,11.497,4.021,21.26,12.067,29.306l126.704,126.705L12.069,382.71C4.026,390.756,0,400.522,0,412.021
	c0,11.486,4.021,21.257,12.067,29.3l58.615,58.611C78.729,507.981,88.5,512,99.989,512c11.497,0,21.26-4.03,29.306-12.067
	l126.71-126.708L382.72,499.933c8.042,8.05,17.803,12.067,29.312,12.067c11.486,0,21.257-4.03,29.3-12.067l58.601-58.611
	c8.051-8.036,12.068-17.813,12.068-29.3c0-11.5-4.019-21.265-12.067-29.312L373.224,256.002L373.224,256.002z"/>
</svg>
